<mxfile host="app.diagrams.net" modified="2024-05-31T15:09:06.974Z" agent="Mozilla/5.0 (Macintosh; Intel Mac OS X 10_15_7) AppleWebKit/605.1.15 (KHTML, like Gecko) Version/17.1 Safari/605.1.15" version="24.4.13" etag="Aea2ITTWFTTOfOFAzZgK" type="github">
  <diagram name="Page-1" id="DDfn3m_5960P_YJZ4miN">
    <mxGraphModel>
      <root>
        <mxCell id="0" />
        <mxCell id="1" parent="0" />
      </root>
    </mxGraphModel>
  </diagram>
</mxfile>
